<svg xmlns="http://www.w3.org/2000/svg" width="141.41" height="56.567" viewBox="0 0 141.41 56.567">
  <g id="Group_123" data-name="Group 123" transform="translate(-252.216 -173.594)">
    <g id="Group_121" data-name="Group 121" transform="translate(252.216 196.593)">
      <path id="Path_2939" data-name="Path 2939" d="M262.5,312.776a.666.666,0,1,1-1.331,0v-5.686h-7.622v5.686a.663.663,0,0,1-.665.686c-.383,0-.665-.669-.665-1.052V299.685c0-.383.282-.319.665-.319a.663.663,0,0,1,.665.686v5.787h7.622v-5.787a.666.666,0,1,1,1.331,0Z" transform="translate(-252.216 -299.306)" fill="#fff"/>
      <path id="Path_2940" data-name="Path 2940" d="M332.652,312.572a.654.654,0,0,1-.383.867.665.665,0,0,1-.867-.4l-1.27-3.307H323.7l-1.271,3.307a.665.665,0,0,1-.867.4.654.654,0,0,1-.383-.867L326,300.009a.856.856,0,0,1,.867-.625h.1a.856.856,0,0,1,.867.625Zm-5.727-11.232-2.742,7.138h5.485Z" transform="translate(-308.495 -299.324)" fill="#fff"/>
      <path id="Path_2941" data-name="Path 2941" d="M406.864,312.814a.675.675,0,0,1-.685.665H406a.73.73,0,0,1-.686-.383l-6.9-11.353v11.05a.666.666,0,1,1-1.331,0V300.07a.7.7,0,0,1,.706-.686h.2a.743.743,0,0,1,.706.4l6.836,11.252V300.07a.666.666,0,1,1,1.331,0Z" transform="translate(-370.527 -299.324)" fill="#fff"/>
      <path id="Path_2942" data-name="Path 2942" d="M472.68,313.828a.707.707,0,0,1-.686-.686V300.62a.707.707,0,0,1,.686-.686h4.537c3.932,0,6.15,3.025,6.15,6.977,0,3.932-2.218,6.917-6.15,6.917Zm.645-1.331h3.892c3.206,0,4.819-2.379,4.819-5.586s-1.613-5.646-4.819-5.646h-3.892Z" transform="translate(-431.705 -299.773)" fill="#fff"/>
      <path id="Path_2943" data-name="Path 2943" d="M547.3,308.975a.678.678,0,0,1,.746.6,3.074,3.074,0,0,0,3.146,2.4c2.1,0,3.186-1.19,3.408-2.279.262-1.714-1.069-2.581-2.642-2.944l-1.875-.423c-2.884-.645-3.267-2.319-3.267-3.488,0-2.258,2.137-3.791,4.356-3.791a4.053,4.053,0,0,1,4.3,3.287.673.673,0,0,1-.544.786.642.642,0,0,1-.766-.585,2.788,2.788,0,0,0-2.984-2.158c-1.533,0-3.025.988-3.025,2.46,0,.726.262,1.754,2.218,2.2l1.9.423c2.218.5,4.053,1.815,3.65,4.477-.322,1.613-1.855,3.367-4.719,3.367a4.375,4.375,0,0,1-4.436-3.569A.657.657,0,0,1,547.3,308.975Z" transform="translate(-492.753 -299.054)" fill="#fff"/>
      <path id="Path_2944" data-name="Path 2944" d="M614.108,299.054a7.119,7.119,0,1,1-7.038,7.138A7.058,7.058,0,0,1,614.108,299.054Zm0,11.373a4.258,4.258,0,1,0-4.093-4.235A4.132,4.132,0,0,0,614.108,310.427Z" transform="translate(-542.019 -299.054)" fill="#fff"/>
      <path id="Path_2945" data-name="Path 2945" d="M707.344,312.007a1.4,1.4,0,0,1-1.311,1.472h-.262a1.661,1.661,0,0,1-1.573-1.008l-4.315-7.5v7.138a1.436,1.436,0,0,1-1.472,1.371,1.478,1.478,0,0,1-1.472-1.371V300.9a1.445,1.445,0,0,1,1.351-1.512h.262a1.71,1.71,0,0,1,1.633,1.028l4.215,7.38v-7.038a1.478,1.478,0,0,1,1.472-1.371,1.436,1.436,0,0,1,1.472,1.371Z" transform="translate(-615.414 -299.324)" fill="#fff"/>
    </g>
    <g id="Group_122" data-name="Group 122" transform="translate(348.234 173.594)">
      <path id="Path_2946" data-name="Path 2946" d="M940.464,403.583a1.446,1.446,0,0,0-1.3,1.3.967.967,0,0,0,1.108,1.065,1.512,1.512,0,0,0,1.3-1.293A.971.971,0,0,0,940.464,403.583Z" transform="translate(-909.253 -361.419)" fill="#00aeef"/>
      <path id="Path_2947" data-name="Path 2947" d="M922.048,406.508a1.434,1.434,0,0,0-1.252,1.356,1,1,0,0,0,1.143,1.084,1.5,1.5,0,0,0,1.253-1.35A1.008,1.008,0,0,0,922.048,406.508Z" transform="translate(-894.253 -363.806)" fill="#00aeef"/>
      <path id="Path_2948" data-name="Path 2948" d="M959.459,400.451a1.464,1.464,0,0,0-1.344,1.238.932.932,0,0,0,1.074,1.045,1.533,1.533,0,0,0,1.345-1.232A.936.936,0,0,0,959.459,400.451Z" transform="translate(-924.725 -358.862)" fill="#00aeef"/>
      <path id="Path_2949" data-name="Path 2949" d="M821.342,197.468c-.482-3.066-1.869-5.549-5.719-6.528,0,0-5.545-1.347-11.616-2.314a.756.756,0,0,1-.564-.432,4.68,4.68,0,0,0-.915-1.293.746.746,0,0,1,.1-1.133,82.992,82.992,0,0,1,9.06-5.57.747.747,0,0,1,.568-.054c.06.018.122.034.185.047.732.146,1.37-.146,1.427-.656s-.5-1.055-1.242-1.213-1.384.139-1.429.662v0a.778.778,0,0,1-.461.674,87.387,87.387,0,0,0-10.866,5.435.734.734,0,0,1-.532.087c-.209-.046-.422-.083-.638-.109a6.266,6.266,0,0,0-.66-.043.731.731,0,0,1-.46-.174q-5.182-4.36-10.965-9.054a.767.767,0,0,1-.265-.716.857.857,0,0,0,.006-.2,1.637,1.637,0,0,0-1.462-1.282c-.757-.1-1.32.326-1.256.945a1.637,1.637,0,0,0,1.463,1.276,1.571,1.571,0,0,0,.348,0,.763.763,0,0,1,.607.226q4.678,4.6,8.869,8.9a.742.742,0,0,1-.047,1.085,3.484,3.484,0,0,0-.861,1.062.748.748,0,0,1-.7.4,103.318,103.318,0,0,0-11.621.141l-.026,0c-3.912.144-5.33,3.334-5.652,7.31a54.89,54.89,0,0,0,.9,10.624,67.583,67.583,0,0,0,2.63,10.472c1.276,4.414,4.451,13.993,4.787,14.1.385.115,3.436-4.948,4.582-7.53a.743.743,0,0,1,.616-.44c2.544-.223,6.062-.588,9.324-1.115,3.586-.588,7.3-1.376,9.852-1.895,1.74-.309,3.058-.652,3.7-.811l.062-.018c2.662-.873,4.313-2.917,5.789-5.672l.029-.056a31.424,31.424,0,0,0,2.391-7.509A26.638,26.638,0,0,0,821.342,197.468Zm-24.694.677h-3.872v11.978a.666.666,0,1,1-1.331,0V198.145h-3.872a.666.666,0,1,1,0-1.331h9.074a.666.666,0,1,1,0,1.331Zm5.606,12.1-3.811-12.724a.645.645,0,0,1,.484-.807.675.675,0,0,1,.787.524l3.367,11.292,3.367-11.292a.675.675,0,0,1,.786-.524.645.645,0,0,1,.484.807l-3.791,12.724a.8.8,0,0,1-.807.565h-.06A.78.78,0,0,1,802.253,210.244Zm2.688,7.141a1.5,1.5,0,0,1-1.253,1.35,1,1,0,0,1-1.143-1.084A1.434,1.434,0,0,1,803.8,216.3,1.008,1.008,0,0,1,804.941,217.385Zm3.379-.557a1.512,1.512,0,0,1-1.3,1.293.967.967,0,0,1-1.108-1.065,1.446,1.446,0,0,1,1.3-1.3A.971.971,0,0,1,808.32,216.828Zm3.489-.594a1.533,1.533,0,0,1-1.345,1.232.932.932,0,0,1-1.074-1.045,1.464,1.464,0,0,1,1.344-1.238A.937.937,0,0,1,811.809,216.234Z" transform="translate(-776.001 -173.594)" fill="#00aeef"/>
    </g>
  </g>
</svg>
